<svg xmlns="http://www.w3.org/2000/svg" viewBox="0 0 22.3 33.51"><defs><style>.cls-1{fill:none;}.cls-1,.cls-2,.cls-3{stroke:#231f20;stroke-miterlimit:10;}.cls-2{fill:#231f20;}.cls-3{fill:#39b54a;}</style></defs><g id="Layer_2" data-name="Layer 2"><g id="Layer_1-2" data-name="Layer 1"><path class="cls-1" d="M12.29,1.42c2.3,0,3.11,2.46,3.11,5v9.89c0,3.63-3.35,6.6-7.45,6.6H8c-4.1,0-7.45-3-7.45-6.6V6.08c0-2.27.91-4.47,3.3-4.47"/><circle class="cls-2" cx="4.27" cy="1.38" r="0.88"/><circle class="cls-2" cx="11.63" cy="1.46" r="0.88"/><path class="cls-1" d="M8,22.89s-1.41,7.11,0,9c1.28,1.7,6.77,1.34,7.45,0,.78-1.53-.6-5.27,0-6.89s4.11-1.24,4.81.06c.58,1.1,0,2.75,0,2.94"/><ellipse class="cls-3" cx="20.24" cy="29.15" rx="1.56" ry="1.37"/></g></g></svg>