<svg xmlns="http://www.w3.org/2000/svg" viewBox="0 0 34.04 22.98"><defs><style>.cls-1,.cls-3{fill:none;stroke:#231f20;}.cls-1,.cls-2,.cls-3{stroke-miterlimit:10;}.cls-2{fill:#ed1c24;stroke:#ed1c24;}.cls-3{opacity:0.5;}</style></defs><g id="Layer_2" data-name="Layer 2"><g id="Layer_1-2" data-name="Layer 1"><line class="cls-1" x1="5.63" y1="22.35" x2="9.12" y2="19.59"/><line class="cls-1" x1="25.12" y1="19.59" x2="25.12" y2="17.33"/><path class="cls-2" d="M5.63,22.35l3.49-2.76V17.33a11.7,11.7,0,0,1,7.8-3.28,11.69,11.69,0,0,1,8.2,3.28v2.26l3.3,2.71,4.91-3.74a21.69,21.69,0,0,0-16-7.79c-10-.15-15.91,6.92-16.62,7.79Z"/><line class="cls-3" x1="16.46" y1="5.74" x2="16.46"/><line class="cls-3" x1="22.55" y1="6.72" x2="24.87" y2="1.49"/><line class="cls-3" x1="28" y1="9.71" x2="32.2" y2="5.8"/><line class="cls-3" x1="10.28" y1="6.72" x2="7.96" y2="1.49"/><line class="cls-3" x1="4.74" y1="9.71" x2="0.54" y2="5.8"/></g></g></svg>