<svg xmlns="http://www.w3.org/2000/svg" viewBox="0 0 31.03 25.23"><defs><style>.cls-1{fill:#39b54a;}.cls-1,.cls-2,.cls-5,.cls-6,.cls-7{stroke:#231f20;}.cls-1,.cls-2,.cls-3,.cls-4,.cls-5,.cls-6,.cls-7{stroke-miterlimit:10;}.cls-2{fill:#fff;}.cls-3{fill:#ed1c24;}.cls-3,.cls-4{stroke:#ed1c24;}.cls-4,.cls-7{fill:none;}.cls-5{fill:#231f20;}.cls-6{fill:#f1f2f2;}</style></defs><g id="Layer_2" data-name="Layer 2"><g id="Layer_1-2" data-name="Layer 1"><path class="cls-1" d="M3.75,23.09C2.17,23.09.5,21.34.5,19.29V8.49c0-2,1.3-3.72,2.88-3.72H18.77c.89,0,4.86,5.6,7.53,8.31,0,0,.19.32,2.34.85a2.76,2.76,0,0,1,1.89,2.56c0-.37-.32,5.24-.6,5.55a7.62,7.62,0,0,1-1.5.93H26.22"/><polyline class="cls-2" points="22.31 9.02 15.05 9.02 15.05 12.3 25.11 12.32"/><path class="cls-3" d="M17.27,2.22c.57,0,1.05.79,1.06,1.78s-2,1-2.06,0S16.7,2.23,17.27,2.22Z"/><line class="cls-4" x1="17.3" x2="17.3" y2="1.09"/><line class="cls-4" x1="18.62" y1="1.41" x2="19.26" y2="0.72"/><rect class="cls-3" x="5.68" y="13.08" width="5.2" height="1.61"/><rect class="cls-3" x="5.68" y="13.08" width="5.2" height="1.61" transform="translate(-5.61 22.17) rotate(-90)"/><ellipse class="cls-5" cx="29.58" cy="16.49" rx="0.28" ry="0.45"/><circle class="cls-6" cx="5.46" cy="23.01" r="1.71"/><circle class="cls-6" cx="24.65" cy="23.02" r="1.71"/><circle class="cls-5" cx="5.43" cy="23.02" r="0.24"/><circle class="cls-5" cx="24.65" cy="23.02" r="0.24"/><line class="cls-4" x1="16.08" y1="1.42" x2="15.45" y2="0.73"/><rect class="cls-7" x="15.53" y="13.64" width="1.36" height="0.64"/><rect class="cls-7" x="28.56" y="20.18" width="1.21" height="0.48"/><path class="cls-7" d="M22.94,23c-5.58,0-10.19.07-15.77,0"/></g></g></svg>